G75*
%MOIN*%
%OFA0B0*%
%FSLAX25Y25*%
%IPPOS*%
%LPD*%
%AMOC8*
5,1,8,0,0,1.08239X$1,22.5*
%
%ADD10C,0.00000*%
D10*
X0001600Y0001600D02*
X0001600Y0099100D01*
X0099100Y0099100D01*
X0099100Y0001600D01*
X0001600Y0001600D01*
X0084552Y0042673D02*
X0084554Y0042738D01*
X0084560Y0042804D01*
X0084570Y0042868D01*
X0084583Y0042932D01*
X0084601Y0042995D01*
X0084622Y0043057D01*
X0084647Y0043117D01*
X0084676Y0043176D01*
X0084708Y0043233D01*
X0084744Y0043288D01*
X0084782Y0043341D01*
X0084824Y0043391D01*
X0084869Y0043439D01*
X0084917Y0043484D01*
X0084967Y0043526D01*
X0085020Y0043564D01*
X0085075Y0043600D01*
X0085132Y0043632D01*
X0085191Y0043661D01*
X0085251Y0043686D01*
X0085313Y0043707D01*
X0085376Y0043725D01*
X0085440Y0043738D01*
X0085504Y0043748D01*
X0085570Y0043754D01*
X0085635Y0043756D01*
X0085700Y0043754D01*
X0085766Y0043748D01*
X0085830Y0043738D01*
X0085894Y0043725D01*
X0085957Y0043707D01*
X0086019Y0043686D01*
X0086079Y0043661D01*
X0086138Y0043632D01*
X0086195Y0043600D01*
X0086250Y0043564D01*
X0086303Y0043526D01*
X0086353Y0043484D01*
X0086401Y0043439D01*
X0086446Y0043391D01*
X0086488Y0043341D01*
X0086526Y0043288D01*
X0086562Y0043233D01*
X0086594Y0043176D01*
X0086623Y0043117D01*
X0086648Y0043057D01*
X0086669Y0042995D01*
X0086687Y0042932D01*
X0086700Y0042868D01*
X0086710Y0042804D01*
X0086716Y0042738D01*
X0086718Y0042673D01*
X0086716Y0042608D01*
X0086710Y0042542D01*
X0086700Y0042478D01*
X0086687Y0042414D01*
X0086669Y0042351D01*
X0086648Y0042289D01*
X0086623Y0042229D01*
X0086594Y0042170D01*
X0086562Y0042113D01*
X0086526Y0042058D01*
X0086488Y0042005D01*
X0086446Y0041955D01*
X0086401Y0041907D01*
X0086353Y0041862D01*
X0086303Y0041820D01*
X0086250Y0041782D01*
X0086195Y0041746D01*
X0086138Y0041714D01*
X0086079Y0041685D01*
X0086019Y0041660D01*
X0085957Y0041639D01*
X0085894Y0041621D01*
X0085830Y0041608D01*
X0085766Y0041598D01*
X0085700Y0041592D01*
X0085635Y0041590D01*
X0085570Y0041592D01*
X0085504Y0041598D01*
X0085440Y0041608D01*
X0085376Y0041621D01*
X0085313Y0041639D01*
X0085251Y0041660D01*
X0085191Y0041685D01*
X0085132Y0041714D01*
X0085075Y0041746D01*
X0085020Y0041782D01*
X0084967Y0041820D01*
X0084917Y0041862D01*
X0084869Y0041907D01*
X0084824Y0041955D01*
X0084782Y0042005D01*
X0084744Y0042058D01*
X0084708Y0042113D01*
X0084676Y0042170D01*
X0084647Y0042229D01*
X0084622Y0042289D01*
X0084601Y0042351D01*
X0084583Y0042414D01*
X0084570Y0042478D01*
X0084560Y0042542D01*
X0084554Y0042608D01*
X0084552Y0042673D01*
X0084552Y0058027D02*
X0084554Y0058092D01*
X0084560Y0058158D01*
X0084570Y0058222D01*
X0084583Y0058286D01*
X0084601Y0058349D01*
X0084622Y0058411D01*
X0084647Y0058471D01*
X0084676Y0058530D01*
X0084708Y0058587D01*
X0084744Y0058642D01*
X0084782Y0058695D01*
X0084824Y0058745D01*
X0084869Y0058793D01*
X0084917Y0058838D01*
X0084967Y0058880D01*
X0085020Y0058918D01*
X0085075Y0058954D01*
X0085132Y0058986D01*
X0085191Y0059015D01*
X0085251Y0059040D01*
X0085313Y0059061D01*
X0085376Y0059079D01*
X0085440Y0059092D01*
X0085504Y0059102D01*
X0085570Y0059108D01*
X0085635Y0059110D01*
X0085700Y0059108D01*
X0085766Y0059102D01*
X0085830Y0059092D01*
X0085894Y0059079D01*
X0085957Y0059061D01*
X0086019Y0059040D01*
X0086079Y0059015D01*
X0086138Y0058986D01*
X0086195Y0058954D01*
X0086250Y0058918D01*
X0086303Y0058880D01*
X0086353Y0058838D01*
X0086401Y0058793D01*
X0086446Y0058745D01*
X0086488Y0058695D01*
X0086526Y0058642D01*
X0086562Y0058587D01*
X0086594Y0058530D01*
X0086623Y0058471D01*
X0086648Y0058411D01*
X0086669Y0058349D01*
X0086687Y0058286D01*
X0086700Y0058222D01*
X0086710Y0058158D01*
X0086716Y0058092D01*
X0086718Y0058027D01*
X0086716Y0057962D01*
X0086710Y0057896D01*
X0086700Y0057832D01*
X0086687Y0057768D01*
X0086669Y0057705D01*
X0086648Y0057643D01*
X0086623Y0057583D01*
X0086594Y0057524D01*
X0086562Y0057467D01*
X0086526Y0057412D01*
X0086488Y0057359D01*
X0086446Y0057309D01*
X0086401Y0057261D01*
X0086353Y0057216D01*
X0086303Y0057174D01*
X0086250Y0057136D01*
X0086195Y0057100D01*
X0086138Y0057068D01*
X0086079Y0057039D01*
X0086019Y0057014D01*
X0085957Y0056993D01*
X0085894Y0056975D01*
X0085830Y0056962D01*
X0085766Y0056952D01*
X0085700Y0056946D01*
X0085635Y0056944D01*
X0085570Y0056946D01*
X0085504Y0056952D01*
X0085440Y0056962D01*
X0085376Y0056975D01*
X0085313Y0056993D01*
X0085251Y0057014D01*
X0085191Y0057039D01*
X0085132Y0057068D01*
X0085075Y0057100D01*
X0085020Y0057136D01*
X0084967Y0057174D01*
X0084917Y0057216D01*
X0084869Y0057261D01*
X0084824Y0057309D01*
X0084782Y0057359D01*
X0084744Y0057412D01*
X0084708Y0057467D01*
X0084676Y0057524D01*
X0084647Y0057583D01*
X0084622Y0057643D01*
X0084601Y0057705D01*
X0084583Y0057768D01*
X0084570Y0057832D01*
X0084560Y0057896D01*
X0084554Y0057962D01*
X0084552Y0058027D01*
M02*
