%
M48
M72
T01C0.0120
T02C0.0217
T03C0.0402
%
T01
X535Y9535
X535Y5035
X5035Y5035
X5910Y4660
X7410Y3160
X6910Y2910
X9410Y4410
X9410Y5035
X9410Y5660
X9535Y9535
X5035Y535
X535Y535
T02
X8564Y4267
X8564Y5803
T03
X1160Y8910
X1160Y7910
X1160Y6910
X1160Y5910
X1160Y4160
X1160Y3160
X1160Y2160
X1160Y1160
X2535Y1160
X3535Y1160
X4535Y1160
X5535Y1160
X6535Y1160
X7535Y1160
M30
