G75*
%MOIN*%
%OFA0B0*%
%FSLAX25Y25*%
%IPPOS*%
%LPD*%
%AMOC8*
5,1,8,0,0,1.08239X$1,22.5*
%
%ADD10C,0.00000*%
%ADD11R,0.06425X0.06425*%
%ADD12C,0.06425*%
%ADD13C,0.01600*%
%ADD14C,0.02400*%
%ADD15C,0.01000*%
D10*
X0001600Y0001600D02*
X0001600Y0099100D01*
X0099100Y0099100D01*
X0099100Y0001600D01*
X0001600Y0001600D01*
X0084552Y0042673D02*
X0084554Y0042738D01*
X0084560Y0042804D01*
X0084570Y0042868D01*
X0084583Y0042932D01*
X0084601Y0042995D01*
X0084622Y0043057D01*
X0084647Y0043117D01*
X0084676Y0043176D01*
X0084708Y0043233D01*
X0084744Y0043288D01*
X0084782Y0043341D01*
X0084824Y0043391D01*
X0084869Y0043439D01*
X0084917Y0043484D01*
X0084967Y0043526D01*
X0085020Y0043564D01*
X0085075Y0043600D01*
X0085132Y0043632D01*
X0085191Y0043661D01*
X0085251Y0043686D01*
X0085313Y0043707D01*
X0085376Y0043725D01*
X0085440Y0043738D01*
X0085504Y0043748D01*
X0085570Y0043754D01*
X0085635Y0043756D01*
X0085700Y0043754D01*
X0085766Y0043748D01*
X0085830Y0043738D01*
X0085894Y0043725D01*
X0085957Y0043707D01*
X0086019Y0043686D01*
X0086079Y0043661D01*
X0086138Y0043632D01*
X0086195Y0043600D01*
X0086250Y0043564D01*
X0086303Y0043526D01*
X0086353Y0043484D01*
X0086401Y0043439D01*
X0086446Y0043391D01*
X0086488Y0043341D01*
X0086526Y0043288D01*
X0086562Y0043233D01*
X0086594Y0043176D01*
X0086623Y0043117D01*
X0086648Y0043057D01*
X0086669Y0042995D01*
X0086687Y0042932D01*
X0086700Y0042868D01*
X0086710Y0042804D01*
X0086716Y0042738D01*
X0086718Y0042673D01*
X0086716Y0042608D01*
X0086710Y0042542D01*
X0086700Y0042478D01*
X0086687Y0042414D01*
X0086669Y0042351D01*
X0086648Y0042289D01*
X0086623Y0042229D01*
X0086594Y0042170D01*
X0086562Y0042113D01*
X0086526Y0042058D01*
X0086488Y0042005D01*
X0086446Y0041955D01*
X0086401Y0041907D01*
X0086353Y0041862D01*
X0086303Y0041820D01*
X0086250Y0041782D01*
X0086195Y0041746D01*
X0086138Y0041714D01*
X0086079Y0041685D01*
X0086019Y0041660D01*
X0085957Y0041639D01*
X0085894Y0041621D01*
X0085830Y0041608D01*
X0085766Y0041598D01*
X0085700Y0041592D01*
X0085635Y0041590D01*
X0085570Y0041592D01*
X0085504Y0041598D01*
X0085440Y0041608D01*
X0085376Y0041621D01*
X0085313Y0041639D01*
X0085251Y0041660D01*
X0085191Y0041685D01*
X0085132Y0041714D01*
X0085075Y0041746D01*
X0085020Y0041782D01*
X0084967Y0041820D01*
X0084917Y0041862D01*
X0084869Y0041907D01*
X0084824Y0041955D01*
X0084782Y0042005D01*
X0084744Y0042058D01*
X0084708Y0042113D01*
X0084676Y0042170D01*
X0084647Y0042229D01*
X0084622Y0042289D01*
X0084601Y0042351D01*
X0084583Y0042414D01*
X0084570Y0042478D01*
X0084560Y0042542D01*
X0084554Y0042608D01*
X0084552Y0042673D01*
X0084552Y0058027D02*
X0084554Y0058092D01*
X0084560Y0058158D01*
X0084570Y0058222D01*
X0084583Y0058286D01*
X0084601Y0058349D01*
X0084622Y0058411D01*
X0084647Y0058471D01*
X0084676Y0058530D01*
X0084708Y0058587D01*
X0084744Y0058642D01*
X0084782Y0058695D01*
X0084824Y0058745D01*
X0084869Y0058793D01*
X0084917Y0058838D01*
X0084967Y0058880D01*
X0085020Y0058918D01*
X0085075Y0058954D01*
X0085132Y0058986D01*
X0085191Y0059015D01*
X0085251Y0059040D01*
X0085313Y0059061D01*
X0085376Y0059079D01*
X0085440Y0059092D01*
X0085504Y0059102D01*
X0085570Y0059108D01*
X0085635Y0059110D01*
X0085700Y0059108D01*
X0085766Y0059102D01*
X0085830Y0059092D01*
X0085894Y0059079D01*
X0085957Y0059061D01*
X0086019Y0059040D01*
X0086079Y0059015D01*
X0086138Y0058986D01*
X0086195Y0058954D01*
X0086250Y0058918D01*
X0086303Y0058880D01*
X0086353Y0058838D01*
X0086401Y0058793D01*
X0086446Y0058745D01*
X0086488Y0058695D01*
X0086526Y0058642D01*
X0086562Y0058587D01*
X0086594Y0058530D01*
X0086623Y0058471D01*
X0086648Y0058411D01*
X0086669Y0058349D01*
X0086687Y0058286D01*
X0086700Y0058222D01*
X0086710Y0058158D01*
X0086716Y0058092D01*
X0086718Y0058027D01*
X0086716Y0057962D01*
X0086710Y0057896D01*
X0086700Y0057832D01*
X0086687Y0057768D01*
X0086669Y0057705D01*
X0086648Y0057643D01*
X0086623Y0057583D01*
X0086594Y0057524D01*
X0086562Y0057467D01*
X0086526Y0057412D01*
X0086488Y0057359D01*
X0086446Y0057309D01*
X0086401Y0057261D01*
X0086353Y0057216D01*
X0086303Y0057174D01*
X0086250Y0057136D01*
X0086195Y0057100D01*
X0086138Y0057068D01*
X0086079Y0057039D01*
X0086019Y0057014D01*
X0085957Y0056993D01*
X0085894Y0056975D01*
X0085830Y0056962D01*
X0085766Y0056952D01*
X0085700Y0056946D01*
X0085635Y0056944D01*
X0085570Y0056946D01*
X0085504Y0056952D01*
X0085440Y0056962D01*
X0085376Y0056975D01*
X0085313Y0056993D01*
X0085251Y0057014D01*
X0085191Y0057039D01*
X0085132Y0057068D01*
X0085075Y0057100D01*
X0085020Y0057136D01*
X0084967Y0057174D01*
X0084917Y0057216D01*
X0084869Y0057261D01*
X0084824Y0057309D01*
X0084782Y0057359D01*
X0084744Y0057412D01*
X0084708Y0057467D01*
X0084676Y0057524D01*
X0084647Y0057583D01*
X0084622Y0057643D01*
X0084601Y0057705D01*
X0084583Y0057768D01*
X0084570Y0057832D01*
X0084560Y0057896D01*
X0084554Y0057962D01*
X0084552Y0058027D01*
D11*
X0025350Y0011600D03*
X0011600Y0041600D03*
X0011600Y0089100D03*
D12*
X0011600Y0079100D03*
X0011600Y0069100D03*
X0011600Y0059100D03*
X0011600Y0031600D03*
X0011600Y0021600D03*
X0011600Y0011600D03*
X0035350Y0011600D03*
X0045350Y0011600D03*
X0055350Y0011600D03*
X0065350Y0011600D03*
X0075350Y0011600D03*
D13*
X0069100Y0029100D02*
X0039100Y0029100D01*
X0035350Y0025350D01*
X0035350Y0011600D01*
X0025350Y0011600D02*
X0025350Y0027850D01*
X0031600Y0034100D01*
X0071600Y0034100D01*
X0074100Y0031600D01*
X0059100Y0046600D02*
X0021600Y0046600D01*
X0016600Y0041600D01*
X0011600Y0041600D01*
D14*
X0005350Y0050350D03*
X0050350Y0050350D03*
X0059100Y0046600D03*
X0074100Y0031600D03*
X0069100Y0029100D03*
X0094100Y0044100D03*
X0094100Y0050350D03*
X0094100Y0056600D03*
X0095350Y0095350D03*
X0005350Y0095350D03*
X0005350Y0005350D03*
X0050350Y0005350D03*
D15*
X0052907Y0007944D02*
X0054492Y0007287D01*
X0056208Y0007287D01*
X0057793Y0007944D01*
X0059006Y0009157D01*
X0059663Y0010742D01*
X0059663Y0012458D01*
X0059006Y0014043D01*
X0057793Y0015256D01*
X0056208Y0015913D01*
X0054492Y0015913D01*
X0052907Y0015256D01*
X0051694Y0014043D01*
X0051037Y0012458D01*
X0051037Y0010742D01*
X0051694Y0009157D01*
X0052907Y0007944D01*
X0052261Y0008590D02*
X0048439Y0008590D01*
X0049006Y0009157D02*
X0047793Y0007944D01*
X0046208Y0007287D01*
X0044492Y0007287D01*
X0042907Y0007944D01*
X0041694Y0009157D01*
X0041037Y0010742D01*
X0041037Y0012458D01*
X0041694Y0014043D01*
X0042907Y0015256D01*
X0044492Y0015913D01*
X0046208Y0015913D01*
X0047793Y0015256D01*
X0049006Y0014043D01*
X0049663Y0012458D01*
X0049663Y0010742D01*
X0049006Y0009157D01*
X0049185Y0009588D02*
X0051515Y0009588D01*
X0051102Y0010587D02*
X0049598Y0010587D01*
X0049663Y0011585D02*
X0051037Y0011585D01*
X0051090Y0012584D02*
X0049610Y0012584D01*
X0049197Y0013582D02*
X0051503Y0013582D01*
X0052232Y0014581D02*
X0048468Y0014581D01*
X0047013Y0015579D02*
X0053687Y0015579D01*
X0057013Y0015579D02*
X0063687Y0015579D01*
X0062907Y0015256D02*
X0061694Y0014043D01*
X0061037Y0012458D01*
X0061037Y0010742D01*
X0061694Y0009157D01*
X0062907Y0007944D01*
X0064492Y0007287D01*
X0066208Y0007287D01*
X0067793Y0007944D01*
X0069006Y0009157D01*
X0069663Y0010742D01*
X0069663Y0012458D01*
X0069006Y0014043D01*
X0067793Y0015256D01*
X0066208Y0015913D01*
X0064492Y0015913D01*
X0062907Y0015256D01*
X0062232Y0014581D02*
X0058468Y0014581D01*
X0059197Y0013582D02*
X0061503Y0013582D01*
X0061090Y0012584D02*
X0059610Y0012584D01*
X0059663Y0011585D02*
X0061037Y0011585D01*
X0061102Y0010587D02*
X0059598Y0010587D01*
X0059185Y0009588D02*
X0061515Y0009588D01*
X0062261Y0008590D02*
X0058439Y0008590D01*
X0056941Y0007591D02*
X0063759Y0007591D01*
X0066941Y0007591D02*
X0073759Y0007591D01*
X0074492Y0007287D02*
X0072907Y0007944D01*
X0071694Y0009157D01*
X0071037Y0010742D01*
X0071037Y0012458D01*
X0071694Y0014043D01*
X0072907Y0015256D01*
X0074492Y0015913D01*
X0076208Y0015913D01*
X0077793Y0015256D01*
X0079006Y0014043D01*
X0079663Y0012458D01*
X0079663Y0010742D01*
X0079006Y0009157D01*
X0077793Y0007944D01*
X0076208Y0007287D01*
X0074492Y0007287D01*
X0076941Y0007591D02*
X0097600Y0007591D01*
X0097600Y0006593D02*
X0003100Y0006593D01*
X0003100Y0007591D02*
X0009100Y0007591D01*
X0009130Y0007569D02*
X0009791Y0007233D01*
X0010496Y0007003D01*
X0011100Y0006908D01*
X0011100Y0011100D01*
X0006908Y0011100D01*
X0007003Y0010496D01*
X0007233Y0009791D01*
X0007569Y0009130D01*
X0008005Y0008530D01*
X0008530Y0008005D01*
X0009130Y0007569D01*
X0007962Y0008590D02*
X0003100Y0008590D01*
X0003100Y0009588D02*
X0007336Y0009588D01*
X0006989Y0010587D02*
X0003100Y0010587D01*
X0003100Y0011585D02*
X0011100Y0011585D01*
X0011100Y0011100D02*
X0011100Y0012100D01*
X0011100Y0016292D01*
X0010496Y0016197D01*
X0009791Y0015967D01*
X0009130Y0015631D01*
X0008530Y0015195D01*
X0008005Y0014670D01*
X0007569Y0014070D01*
X0007233Y0013409D01*
X0007003Y0012704D01*
X0006908Y0012100D01*
X0011100Y0012100D01*
X0012100Y0012100D01*
X0012100Y0016292D01*
X0012704Y0016197D01*
X0013409Y0015967D01*
X0014070Y0015631D01*
X0014670Y0015195D01*
X0015195Y0014670D01*
X0015631Y0014070D01*
X0015967Y0013409D01*
X0016197Y0012704D01*
X0016292Y0012100D01*
X0012100Y0012100D01*
X0012100Y0011100D01*
X0016292Y0011100D01*
X0016197Y0010496D01*
X0015967Y0009791D01*
X0015631Y0009130D01*
X0015195Y0008530D01*
X0014670Y0008005D01*
X0014070Y0007569D01*
X0013409Y0007233D01*
X0012704Y0007003D01*
X0012100Y0006908D01*
X0012100Y0011100D01*
X0011100Y0011100D01*
X0011100Y0010587D02*
X0012100Y0010587D01*
X0012100Y0011585D02*
X0021037Y0011585D01*
X0021037Y0010587D02*
X0016211Y0010587D01*
X0015864Y0009588D02*
X0021037Y0009588D01*
X0021037Y0008590D02*
X0015238Y0008590D01*
X0014100Y0007591D02*
X0021378Y0007591D01*
X0021682Y0007287D02*
X0029018Y0007287D01*
X0029663Y0007932D01*
X0029663Y0015268D01*
X0029018Y0015913D01*
X0027250Y0015913D01*
X0027250Y0027063D01*
X0032387Y0032200D01*
X0070813Y0032200D01*
X0071800Y0031213D01*
X0071800Y0030647D01*
X0073147Y0029300D01*
X0075053Y0029300D01*
X0076400Y0030647D01*
X0076400Y0032553D01*
X0075053Y0033900D01*
X0074487Y0033900D01*
X0072387Y0036000D01*
X0030813Y0036000D01*
X0029700Y0034887D01*
X0023450Y0028637D01*
X0023450Y0015913D01*
X0021682Y0015913D01*
X0021037Y0015268D01*
X0021037Y0007932D01*
X0021682Y0007287D01*
X0021037Y0012584D02*
X0016216Y0012584D01*
X0015879Y0013582D02*
X0021037Y0013582D01*
X0021037Y0014581D02*
X0015260Y0014581D01*
X0014141Y0015579D02*
X0021348Y0015579D01*
X0023450Y0016578D02*
X0003100Y0016578D01*
X0003100Y0017576D02*
X0010045Y0017576D01*
X0010742Y0017287D02*
X0009157Y0017944D01*
X0007944Y0019157D01*
X0007287Y0020742D01*
X0007287Y0022458D01*
X0007944Y0024043D01*
X0009157Y0025256D01*
X0010742Y0025913D01*
X0012458Y0025913D01*
X0014043Y0025256D01*
X0015256Y0024043D01*
X0015913Y0022458D01*
X0015913Y0020742D01*
X0015256Y0019157D01*
X0014043Y0017944D01*
X0012458Y0017287D01*
X0010742Y0017287D01*
X0011100Y0015579D02*
X0012100Y0015579D01*
X0012100Y0014581D02*
X0011100Y0014581D01*
X0011100Y0013582D02*
X0012100Y0013582D01*
X0012100Y0012584D02*
X0011100Y0012584D01*
X0011100Y0009588D02*
X0012100Y0009588D01*
X0012100Y0008590D02*
X0011100Y0008590D01*
X0011100Y0007591D02*
X0012100Y0007591D01*
X0006984Y0012584D02*
X0003100Y0012584D01*
X0003100Y0013582D02*
X0007321Y0013582D01*
X0007940Y0014581D02*
X0003100Y0014581D01*
X0003100Y0015579D02*
X0009059Y0015579D01*
X0008526Y0018575D02*
X0003100Y0018575D01*
X0003100Y0019573D02*
X0007772Y0019573D01*
X0007358Y0020572D02*
X0003100Y0020572D01*
X0003100Y0021570D02*
X0007287Y0021570D01*
X0007333Y0022569D02*
X0003100Y0022569D01*
X0003100Y0023567D02*
X0007747Y0023567D01*
X0008467Y0024566D02*
X0003100Y0024566D01*
X0003100Y0025564D02*
X0009901Y0025564D01*
X0010742Y0027287D02*
X0009157Y0027944D01*
X0007944Y0029157D01*
X0007287Y0030742D01*
X0007287Y0032458D01*
X0007944Y0034043D01*
X0009157Y0035256D01*
X0010742Y0035913D01*
X0012458Y0035913D01*
X0014043Y0035256D01*
X0015256Y0034043D01*
X0015913Y0032458D01*
X0015913Y0030742D01*
X0015256Y0029157D01*
X0014043Y0027944D01*
X0012458Y0027287D01*
X0010742Y0027287D01*
X0010081Y0027561D02*
X0003100Y0027561D01*
X0003100Y0026563D02*
X0023450Y0026563D01*
X0023450Y0027561D02*
X0013119Y0027561D01*
X0014659Y0028560D02*
X0023450Y0028560D01*
X0024371Y0029558D02*
X0015422Y0029558D01*
X0015836Y0030557D02*
X0025370Y0030557D01*
X0026368Y0031555D02*
X0015913Y0031555D01*
X0015873Y0032554D02*
X0027367Y0032554D01*
X0028365Y0033552D02*
X0015459Y0033552D01*
X0014748Y0034551D02*
X0029364Y0034551D01*
X0030362Y0035549D02*
X0013335Y0035549D01*
X0015268Y0037287D02*
X0015913Y0037932D01*
X0015913Y0039700D01*
X0017387Y0039700D01*
X0022387Y0044700D01*
X0057747Y0044700D01*
X0058147Y0044300D01*
X0060053Y0044300D01*
X0061400Y0045647D01*
X0061400Y0047553D01*
X0060053Y0048900D01*
X0058147Y0048900D01*
X0057747Y0048500D01*
X0020813Y0048500D01*
X0015913Y0043600D01*
X0015913Y0045268D01*
X0015268Y0045913D01*
X0007932Y0045913D01*
X0007287Y0045268D01*
X0007287Y0037932D01*
X0007932Y0037287D01*
X0015268Y0037287D01*
X0015527Y0037546D02*
X0097600Y0037546D01*
X0097600Y0036548D02*
X0003100Y0036548D01*
X0003100Y0037546D02*
X0007673Y0037546D01*
X0007287Y0038545D02*
X0003100Y0038545D01*
X0003100Y0039543D02*
X0007287Y0039543D01*
X0007287Y0040542D02*
X0003100Y0040542D01*
X0003100Y0041540D02*
X0007287Y0041540D01*
X0007287Y0042539D02*
X0003100Y0042539D01*
X0003100Y0043537D02*
X0007287Y0043537D01*
X0007287Y0044536D02*
X0003100Y0044536D01*
X0003100Y0045534D02*
X0007554Y0045534D01*
X0003100Y0046533D02*
X0018846Y0046533D01*
X0017848Y0045534D02*
X0015646Y0045534D01*
X0015913Y0044536D02*
X0016849Y0044536D01*
X0019227Y0041540D02*
X0083309Y0041540D01*
X0083446Y0041210D02*
X0083053Y0042159D01*
X0083053Y0043187D01*
X0083446Y0044136D01*
X0084172Y0044862D01*
X0085122Y0045255D01*
X0086149Y0045255D01*
X0087098Y0044862D01*
X0087825Y0044136D01*
X0088218Y0043187D01*
X0088218Y0042159D01*
X0087825Y0041210D01*
X0087098Y0040483D01*
X0086149Y0040090D01*
X0085122Y0040090D01*
X0084172Y0040483D01*
X0083446Y0041210D01*
X0084114Y0040542D02*
X0018229Y0040542D01*
X0015913Y0039543D02*
X0097600Y0039543D01*
X0097600Y0038545D02*
X0015913Y0038545D01*
X0020226Y0042539D02*
X0083053Y0042539D01*
X0083198Y0043537D02*
X0021224Y0043537D01*
X0022223Y0044536D02*
X0057911Y0044536D01*
X0060289Y0044536D02*
X0083846Y0044536D01*
X0087425Y0044536D02*
X0097600Y0044536D01*
X0097600Y0045534D02*
X0061287Y0045534D01*
X0061400Y0046533D02*
X0097600Y0046533D01*
X0097600Y0047532D02*
X0061400Y0047532D01*
X0060423Y0048530D02*
X0097600Y0048530D01*
X0097600Y0049529D02*
X0003100Y0049529D01*
X0003100Y0050527D02*
X0097600Y0050527D01*
X0097600Y0051526D02*
X0003100Y0051526D01*
X0003100Y0052524D02*
X0097600Y0052524D01*
X0097600Y0053523D02*
X0003100Y0053523D01*
X0003100Y0054521D02*
X0097600Y0054521D01*
X0097600Y0055520D02*
X0086331Y0055520D01*
X0086149Y0055444D02*
X0087098Y0055838D01*
X0087825Y0056564D01*
X0088218Y0057513D01*
X0088218Y0058541D01*
X0087825Y0059490D01*
X0087098Y0060217D01*
X0086149Y0060610D01*
X0085122Y0060610D01*
X0084172Y0060217D01*
X0083446Y0059490D01*
X0083053Y0058541D01*
X0083053Y0057513D01*
X0083446Y0056564D01*
X0084172Y0055838D01*
X0085122Y0055444D01*
X0086149Y0055444D01*
X0084940Y0055520D02*
X0014119Y0055520D01*
X0014043Y0055444D02*
X0015256Y0056657D01*
X0015913Y0058242D01*
X0015913Y0059958D01*
X0015256Y0061543D01*
X0014043Y0062756D01*
X0012458Y0063413D01*
X0010742Y0063413D01*
X0009157Y0062756D01*
X0007944Y0061543D01*
X0007287Y0059958D01*
X0007287Y0058242D01*
X0007944Y0056657D01*
X0009157Y0055444D01*
X0010742Y0054787D01*
X0012458Y0054787D01*
X0014043Y0055444D01*
X0015117Y0056518D02*
X0083492Y0056518D01*
X0083053Y0057517D02*
X0015612Y0057517D01*
X0015913Y0058515D02*
X0083053Y0058515D01*
X0083469Y0059514D02*
X0015913Y0059514D01*
X0015683Y0060512D02*
X0084886Y0060512D01*
X0086385Y0060512D02*
X0097600Y0060512D01*
X0097600Y0059514D02*
X0087801Y0059514D01*
X0088218Y0058515D02*
X0097600Y0058515D01*
X0097600Y0057517D02*
X0088218Y0057517D01*
X0087779Y0056518D02*
X0097600Y0056518D01*
X0097600Y0061511D02*
X0015269Y0061511D01*
X0014290Y0062509D02*
X0097600Y0062509D01*
X0097600Y0063508D02*
X0003100Y0063508D01*
X0003100Y0064506D02*
X0097600Y0064506D01*
X0097600Y0065505D02*
X0014104Y0065505D01*
X0014043Y0065444D02*
X0015256Y0066657D01*
X0015913Y0068242D01*
X0015913Y0069958D01*
X0015256Y0071543D01*
X0014043Y0072756D01*
X0012458Y0073413D01*
X0010742Y0073413D01*
X0009157Y0072756D01*
X0007944Y0071543D01*
X0007287Y0069958D01*
X0007287Y0068242D01*
X0007944Y0066657D01*
X0009157Y0065444D01*
X0010742Y0064787D01*
X0012458Y0064787D01*
X0014043Y0065444D01*
X0015102Y0066503D02*
X0097600Y0066503D01*
X0097600Y0067502D02*
X0015606Y0067502D01*
X0015913Y0068500D02*
X0097600Y0068500D01*
X0097600Y0069499D02*
X0015913Y0069499D01*
X0015689Y0070497D02*
X0097600Y0070497D01*
X0097600Y0071496D02*
X0015276Y0071496D01*
X0014305Y0072494D02*
X0097600Y0072494D01*
X0097600Y0073493D02*
X0003100Y0073493D01*
X0003100Y0074491D02*
X0097600Y0074491D01*
X0097600Y0075490D02*
X0014089Y0075490D01*
X0014043Y0075444D02*
X0015256Y0076657D01*
X0015913Y0078242D01*
X0015913Y0079958D01*
X0015256Y0081543D01*
X0014043Y0082756D01*
X0012458Y0083413D01*
X0010742Y0083413D01*
X0009157Y0082756D01*
X0007944Y0081543D01*
X0007287Y0079958D01*
X0007287Y0078242D01*
X0007944Y0076657D01*
X0009157Y0075444D01*
X0010742Y0074787D01*
X0012458Y0074787D01*
X0014043Y0075444D01*
X0015087Y0076488D02*
X0097600Y0076488D01*
X0097600Y0077487D02*
X0015600Y0077487D01*
X0015913Y0078485D02*
X0097600Y0078485D01*
X0097600Y0079484D02*
X0015913Y0079484D01*
X0015695Y0080482D02*
X0097600Y0080482D01*
X0097600Y0081481D02*
X0015282Y0081481D01*
X0014320Y0082479D02*
X0097600Y0082479D01*
X0097600Y0083478D02*
X0003100Y0083478D01*
X0003100Y0084476D02*
X0097600Y0084476D01*
X0097600Y0085475D02*
X0015913Y0085475D01*
X0015913Y0085432D02*
X0015913Y0092768D01*
X0015268Y0093413D01*
X0007932Y0093413D01*
X0007287Y0092768D01*
X0007287Y0085432D01*
X0007932Y0084787D01*
X0015268Y0084787D01*
X0015913Y0085432D01*
X0015913Y0086473D02*
X0097600Y0086473D01*
X0097600Y0087472D02*
X0015913Y0087472D01*
X0015913Y0088470D02*
X0097600Y0088470D01*
X0097600Y0089469D02*
X0015913Y0089469D01*
X0015913Y0090468D02*
X0097600Y0090468D01*
X0097600Y0091466D02*
X0015913Y0091466D01*
X0015913Y0092465D02*
X0097600Y0092465D01*
X0097600Y0093463D02*
X0003100Y0093463D01*
X0003100Y0092465D02*
X0007287Y0092465D01*
X0007287Y0091466D02*
X0003100Y0091466D01*
X0003100Y0090468D02*
X0007287Y0090468D01*
X0007287Y0089469D02*
X0003100Y0089469D01*
X0003100Y0088470D02*
X0007287Y0088470D01*
X0007287Y0087472D02*
X0003100Y0087472D01*
X0003100Y0086473D02*
X0007287Y0086473D01*
X0007287Y0085475D02*
X0003100Y0085475D01*
X0003100Y0082479D02*
X0008880Y0082479D01*
X0007918Y0081481D02*
X0003100Y0081481D01*
X0003100Y0080482D02*
X0007505Y0080482D01*
X0007287Y0079484D02*
X0003100Y0079484D01*
X0003100Y0078485D02*
X0007287Y0078485D01*
X0007600Y0077487D02*
X0003100Y0077487D01*
X0003100Y0076488D02*
X0008113Y0076488D01*
X0009111Y0075490D02*
X0003100Y0075490D01*
X0003100Y0072494D02*
X0008895Y0072494D01*
X0007924Y0071496D02*
X0003100Y0071496D01*
X0003100Y0070497D02*
X0007511Y0070497D01*
X0007287Y0069499D02*
X0003100Y0069499D01*
X0003100Y0068500D02*
X0007287Y0068500D01*
X0007594Y0067502D02*
X0003100Y0067502D01*
X0003100Y0066503D02*
X0008098Y0066503D01*
X0009096Y0065505D02*
X0003100Y0065505D01*
X0003100Y0062509D02*
X0008910Y0062509D01*
X0007931Y0061511D02*
X0003100Y0061511D01*
X0003100Y0060512D02*
X0007517Y0060512D01*
X0007287Y0059514D02*
X0003100Y0059514D01*
X0003100Y0058515D02*
X0007287Y0058515D01*
X0007588Y0057517D02*
X0003100Y0057517D01*
X0003100Y0056518D02*
X0008083Y0056518D01*
X0009081Y0055520D02*
X0003100Y0055520D01*
X0003100Y0048530D02*
X0057777Y0048530D01*
X0072838Y0035549D02*
X0097600Y0035549D01*
X0097600Y0034551D02*
X0073836Y0034551D01*
X0075400Y0033552D02*
X0097600Y0033552D01*
X0097600Y0032554D02*
X0076399Y0032554D01*
X0076400Y0031555D02*
X0097600Y0031555D01*
X0097600Y0030557D02*
X0076310Y0030557D01*
X0075311Y0029558D02*
X0097600Y0029558D01*
X0097600Y0028560D02*
X0071400Y0028560D01*
X0071400Y0028147D02*
X0070053Y0026800D01*
X0068147Y0026800D01*
X0067747Y0027200D01*
X0039887Y0027200D01*
X0037250Y0024563D01*
X0037250Y0015481D01*
X0037793Y0015256D01*
X0039006Y0014043D01*
X0039663Y0012458D01*
X0039663Y0010742D01*
X0039006Y0009157D01*
X0037793Y0007944D01*
X0036208Y0007287D01*
X0034492Y0007287D01*
X0032907Y0007944D01*
X0031694Y0009157D01*
X0031037Y0010742D01*
X0031037Y0012458D01*
X0031694Y0014043D01*
X0032907Y0015256D01*
X0033450Y0015481D01*
X0033450Y0026137D01*
X0034563Y0027250D01*
X0038313Y0031000D01*
X0067747Y0031000D01*
X0068147Y0031400D01*
X0070053Y0031400D01*
X0071400Y0030053D01*
X0071400Y0028147D01*
X0070814Y0027561D02*
X0097600Y0027561D01*
X0097600Y0026563D02*
X0039250Y0026563D01*
X0038251Y0025564D02*
X0097600Y0025564D01*
X0097600Y0024566D02*
X0037253Y0024566D01*
X0037250Y0023567D02*
X0097600Y0023567D01*
X0097600Y0022569D02*
X0037250Y0022569D01*
X0037250Y0021570D02*
X0097600Y0021570D01*
X0097600Y0020572D02*
X0037250Y0020572D01*
X0037250Y0019573D02*
X0097600Y0019573D01*
X0097600Y0018575D02*
X0037250Y0018575D01*
X0037250Y0017576D02*
X0097600Y0017576D01*
X0097600Y0016578D02*
X0037250Y0016578D01*
X0037250Y0015579D02*
X0043687Y0015579D01*
X0042232Y0014581D02*
X0038468Y0014581D01*
X0039197Y0013582D02*
X0041503Y0013582D01*
X0041090Y0012584D02*
X0039610Y0012584D01*
X0039663Y0011585D02*
X0041037Y0011585D01*
X0041102Y0010587D02*
X0039598Y0010587D01*
X0039185Y0009588D02*
X0041515Y0009588D01*
X0042261Y0008590D02*
X0038439Y0008590D01*
X0036941Y0007591D02*
X0043759Y0007591D01*
X0046941Y0007591D02*
X0053759Y0007591D01*
X0067013Y0015579D02*
X0073687Y0015579D01*
X0072232Y0014581D02*
X0068468Y0014581D01*
X0069197Y0013582D02*
X0071503Y0013582D01*
X0071090Y0012584D02*
X0069610Y0012584D01*
X0069663Y0011585D02*
X0071037Y0011585D01*
X0071102Y0010587D02*
X0069598Y0010587D01*
X0069185Y0009588D02*
X0071515Y0009588D01*
X0072261Y0008590D02*
X0068439Y0008590D01*
X0077013Y0015579D02*
X0097600Y0015579D01*
X0097600Y0014581D02*
X0078468Y0014581D01*
X0079197Y0013582D02*
X0097600Y0013582D01*
X0097600Y0012584D02*
X0079610Y0012584D01*
X0079663Y0011585D02*
X0097600Y0011585D01*
X0097600Y0010587D02*
X0079598Y0010587D01*
X0079185Y0009588D02*
X0097600Y0009588D01*
X0097600Y0008590D02*
X0078439Y0008590D01*
X0097600Y0005594D02*
X0003100Y0005594D01*
X0003100Y0004596D02*
X0097600Y0004596D01*
X0097600Y0003597D02*
X0003100Y0003597D01*
X0003100Y0003100D02*
X0003100Y0097600D01*
X0097600Y0097600D01*
X0097600Y0003100D01*
X0003100Y0003100D01*
X0013155Y0017576D02*
X0023450Y0017576D01*
X0023450Y0018575D02*
X0014674Y0018575D01*
X0015428Y0019573D02*
X0023450Y0019573D01*
X0023450Y0020572D02*
X0015842Y0020572D01*
X0015913Y0021570D02*
X0023450Y0021570D01*
X0023450Y0022569D02*
X0015867Y0022569D01*
X0015453Y0023567D02*
X0023450Y0023567D01*
X0023450Y0024566D02*
X0014733Y0024566D01*
X0013299Y0025564D02*
X0023450Y0025564D01*
X0027250Y0025564D02*
X0033450Y0025564D01*
X0033450Y0024566D02*
X0027250Y0024566D01*
X0027250Y0023567D02*
X0033450Y0023567D01*
X0033450Y0022569D02*
X0027250Y0022569D01*
X0027250Y0021570D02*
X0033450Y0021570D01*
X0033450Y0020572D02*
X0027250Y0020572D01*
X0027250Y0019573D02*
X0033450Y0019573D01*
X0033450Y0018575D02*
X0027250Y0018575D01*
X0027250Y0017576D02*
X0033450Y0017576D01*
X0033450Y0016578D02*
X0027250Y0016578D01*
X0029352Y0015579D02*
X0033450Y0015579D01*
X0032232Y0014581D02*
X0029663Y0014581D01*
X0029663Y0013582D02*
X0031503Y0013582D01*
X0031090Y0012584D02*
X0029663Y0012584D01*
X0029663Y0011585D02*
X0031037Y0011585D01*
X0031102Y0010587D02*
X0029663Y0010587D01*
X0029663Y0009588D02*
X0031515Y0009588D01*
X0032261Y0008590D02*
X0029663Y0008590D01*
X0029322Y0007591D02*
X0033759Y0007591D01*
X0033876Y0026563D02*
X0027250Y0026563D01*
X0027748Y0027561D02*
X0034874Y0027561D01*
X0035873Y0028560D02*
X0028747Y0028560D01*
X0029745Y0029558D02*
X0036871Y0029558D01*
X0037870Y0030557D02*
X0030744Y0030557D01*
X0031742Y0031555D02*
X0071458Y0031555D01*
X0071890Y0030557D02*
X0070896Y0030557D01*
X0071400Y0029558D02*
X0072889Y0029558D01*
X0087157Y0040542D02*
X0097600Y0040542D01*
X0097600Y0041540D02*
X0087962Y0041540D01*
X0088218Y0042539D02*
X0097600Y0042539D01*
X0097600Y0043537D02*
X0088073Y0043537D01*
X0097600Y0094462D02*
X0003100Y0094462D01*
X0003100Y0095460D02*
X0097600Y0095460D01*
X0097600Y0096459D02*
X0003100Y0096459D01*
X0003100Y0097457D02*
X0097600Y0097457D01*
X0019845Y0047532D02*
X0003100Y0047532D01*
X0003100Y0035549D02*
X0009865Y0035549D01*
X0008452Y0034551D02*
X0003100Y0034551D01*
X0003100Y0033552D02*
X0007741Y0033552D01*
X0007327Y0032554D02*
X0003100Y0032554D01*
X0003100Y0031555D02*
X0007287Y0031555D01*
X0007364Y0030557D02*
X0003100Y0030557D01*
X0003100Y0029558D02*
X0007778Y0029558D01*
X0008541Y0028560D02*
X0003100Y0028560D01*
M02*
